<?xml version="1.0" encoding="utf-8"?>
<!-- Generator: Adobe Illustrator 22.0.1, SVG Export Plug-In . SVG Version: 6.00 Build 0)  -->
<svg version="1.1" id="Layer_1" xmlns="http://www.w3.org/2000/svg" xmlns:xlink="http://www.w3.org/1999/xlink" x="0px" y="0px"
	 viewBox="0 0 450 210" style="enable-background:new 0 0 450 210;" xml:space="preserve">
<style type="text/css">
	.st0{clip-path:url(#SVGID_2_);}
	.st1{fill:#FF931E;}
	.st2{fill:#3FA9F5;}
	.st3{fill:#FF1D25;}
	.st4{fill:#7AC943;}
</style>
<defs>
	<path id="SVGID_1_" d="M441.6,128.2c-0.8-2.3-2-4.6-3.5-7c-1.2-1.8-2.5-3.6-3.7-5.4c-1.2-1.5-2.6-3.4-4.3-5.7l-60.8-81.4
		c-4.4-5.9-8-10.2-11.1-13.1c-4.6-4.3-10.4-6.6-16.8-6.6c-17.8,0-28.5,11.6-28.5,31v78.2c-4.9,0.5-9,1.5-12.7,3.1
		c-1.4,0.6-3,1.6-4.7,3c0.3-5.1,0.5-10.5,0.5-16.3c0-25-3.2-44-9.8-58.3c-3.9-8.4-8.8-15.6-14.5-21.4c-5.9-6-12.9-10.6-20.7-13.8
		c-7.7-3.1-16.3-4.6-25.6-4.6c-14.1,0-26.6,3.5-37,10.5c-10.4,7-18.4,17.2-23.8,30.2l-0.1,0.2c-2.9,7.5-5.1,16.4-6.4,26.5
		c-1.3,9.7-1.9,20.7-1.9,32.7c0,5.2,0.2,10.3,0.6,15.2c-1.9-1.9-4-3.1-5.7-3.9c-3.6-1.6-7.8-2.7-12.7-3.1V40.1
		c0-19.4-10.6-31-28.5-31c-6.4,0-12.2,2.3-16.8,6.6c-3.1,2.9-6.7,7.2-11.1,13.1l-60.8,81.4c-1.7,2.2-3.1,4.1-4.3,5.7
		c-1.3,1.7-2.6,3.5-3.7,5.4c-1.5,2.4-2.7,4.7-3.5,7c-1,2.7-1.5,5.4-1.5,8.1c0,8.8,3.1,16.2,9.1,21.6c5.7,5.2,13.7,7.8,23.8,7.8h46.7
		v10.4c0,8.5,2.3,15.4,6.8,20.4c4.7,5.3,11.2,8.1,18.6,8.1c7.5,0,13.9-2.7,18.6-7.9c4.5-4.9,6.8-11.9,6.8-20.5v-10.5
		c6.3-0.5,11.4-2.1,15.4-4.9c3.3-2.3,5.7-5.4,7.3-9.1c0.8,2.9,1.7,5.7,2.7,8.3l0.1,0.2c5.4,13.6,13.7,24.4,24.7,32.2
		c11.1,7.9,23.8,11.9,37.7,11.9c12.1,0,23.2-3,33.2-8.9c9.9-5.9,18-14.2,24.1-24.9l0.1-0.1c3-5.3,5.4-11,7.2-17.1
		c1.5,2.9,3.7,5.4,6.5,7.4c4,2.8,9.1,4.4,15.4,4.9v10.5c0,8.7,2.3,15.6,6.8,20.5c4.7,5.2,11.1,7.9,18.6,7.9c7.4,0,13.8-2.8,18.6-8.1
		c4.5-5,6.8-11.9,6.8-20.4v-10.4h46.7c10.1,0,18.1-2.6,23.8-7.8c5.9-5.4,9.1-12.8,9.1-21.6C443.1,133.6,442.6,130.9,441.6,128.2z
		 M87.9,118H71.3l16.6-22.4V118z M240.3,139.7c-1.3,7.2-3.3,12.6-6.1,16c-1.3,1.6-3.3,3.3-8,3.3c-4.5,0-6.5-1.6-7.8-3.2
		c-2.7-3.2-4.8-8.6-6.1-15.7c-1.6-8.5-2.3-19.7-2.3-33.4c0-19.8,1.7-34.3,5.2-43.1c2.7-6.8,6.2-8.3,10.8-8.3c4.9,0,7,1.6,8.3,3.1
		c2.6,3,4.7,8.2,6,15c1.6,8.2,2.3,19.1,2.3,32.4C242.6,119.9,241.8,131.3,240.3,139.7z M363.6,118V95.6l16.6,22.4H363.6z"/>
</defs>
<clipPath id="SVGID_2_">
	<use xlink:href="#SVGID_1_"  style="overflow:visible;"/>
</clipPath>
<g class="st0">

		<path id="path5043-0-6-1-1-0-9-7-3-0-6"  class="st1" d="
		M-62.7,111c0,0,8.2-26.5,0-34.7c-7.2-7.2-23.2,7.2-30.4,0c-7.2-7.2-7.2-23.2,0-30.4c7.2-7.2,23.2,7.2,30.4,0c8.2-8.2,0-34.7,0-34.7
		s26.5-8.2,34.7,0c7.2,7.2-7.2,23.2,0,30.4c7.2,7.2,23.2,7.2,30.4,0c7.2-7.2-7.2-23.2,0-30.4c8.2-8.2,34.7,0,34.7,0
		s-8.2,26.5,0,34.7c7.2,7.2,23.2-7.2,30.4,0c7.2,7.2,7.2,23.2,0,30.4c-7.2,7.2-23.2-7.2-30.4,0c-8.2,8.2,0,34.7,0,34.7
		s-26.5,8.2-34.7,0c-7.2-7.2,7.2-23.2,0-30.4c-7.2-7.2-23.2-7.2-30.4,0c-7.2,7.2,7.2,23.2,0,30.4C-36.1,119.2-62.7,111-62.7,111z"/>

		<path id="path5043-0-6-1-1-0-9-7-3-3-6"  class="st2" d="
		M136.9,111c0,0,8.2-26.5,0-34.7c-7.2-7.2-23.2,7.2-30.4,0c-7.2-7.2-7.2-23.2,0-30.4c7.2-7.2,23.2,7.2,30.4,0c8.2-8.2,0-34.7,0-34.7
		s26.5-8.2,34.7,0c7.2,7.2-7.2,23.2,0,30.4c7.2,7.2,23.2,7.2,30.4,0c7.2-7.2-7.2-23.2,0-30.4c8.2-8.2,34.7,0,34.7,0
		s-8.2,26.5,0,34.7c7.2,7.2,23.2-7.2,30.4,0c7.2,7.2,7.2,23.2,0,30.4c-7.2,7.2-23.2-7.2-30.4,0c-8.2,8.2,0,34.7,0,34.7
		s-26.5,8.2-34.7,0c-7.2-7.2,7.2-23.2,0-30.4c-7.2-7.2-23.2-7.2-30.4,0c-7.2,7.2,7.2,23.2,0,30.4C163.5,119.2,136.9,111,136.9,111z"
		/>

		<path id="path5043-0-1-94-4-9-0-13-2-0-7"  class="st3" d="
		M136.9,111c0,0-26.5-8.2-34.7,0c-7.2,7.2,7.2,23.2,0,30.4c-7.2,7.2-23.2,7.2-30.4,0c-7.2-7.2,7.2-23.2,0-30.4
		c-8.2-8.2-34.7,0-34.7,0s-8.2-26.5,0-34.7c7.2-7.2,23.2,7.2,30.4,0c7.2-7.2,7.2-23.2,0-30.4c-7.2-7.2-23.2,7.2-30.4,0
		c-8.2-8.2,0-34.7,0-34.7s26.5,8.2,34.7,0C79,4,64.7-12,71.8-19.2c7.2-7.2,23.2-7.2,30.4,0c7.2,7.2-7.2,23.2,0,30.4
		c8.2,8.2,34.7,0,34.7,0s8.2,26.5,0,34.7c-7.2,7.2-23.2-7.2-30.4,0c-7.2,7.2-7.2,23.2,0,30.4c7.2,7.2,23.2-7.2,30.4,0
		C145.1,84.5,136.9,111,136.9,111z"/>

		<path id="path5043-0-6-1-1-0-9-7-3-0-6_1_"  class="st1" d="
		M336.3,111c0,0,8.2-26.5,0-34.7c-7.2-7.2-23.2,7.2-30.4,0c-7.2-7.2-7.2-23.2,0-30.4c7.2-7.2,23.2,7.2,30.4,0c8.2-8.2,0-34.7,0-34.7
		s26.5-8.2,34.7,0c7.2,7.2-7.2,23.2,0,30.4c7.2,7.2,23.2,7.2,30.4,0c7.2-7.2-7.2-23.2,0-30.4c8.2-8.2,34.7,0,34.7,0
		s-8.2,26.5,0,34.7c7.2,7.2,23.2-7.2,30.4,0c7.2,7.2,7.2,23.2,0,30.4c-7.2,7.2-23.2-7.2-30.4,0c-8.2,8.2,0,34.7,0,34.7
		s-26.5,8.2-34.7,0c-7.2-7.2,7.2-23.2,0-30.4c-7.2-7.2-23.2-7.2-30.4,0c-7.2,7.2,7.2,23.2,0,30.4C362.9,119.2,336.3,111,336.3,111z"
		/>

		<path id="path5043-0-1-94-4-9-0-13-2-6-0_1_"  class="st4" d="
		M336.3,111c0,0-26.5-8.2-34.7,0c-7.2,7.2,7.2,23.2,0,30.4c-7.2,7.2-23.2,7.2-30.4,0c-7.2-7.2,7.2-23.2,0-30.4
		c-8.2-8.2-34.7,0-34.7,0s-8.2-26.5,0-34.7c7.2-7.2,23.2,7.2,30.4,0c7.2-7.2,7.2-23.2,0-30.4c-7.2-7.2-23.2,7.2-30.4,0
		c-8.2-8.2,0-34.7,0-34.7s26.5,8.2,34.7,0c7.2-7.2-7.2-23.2,0-30.4c7.2-7.2,23.2-7.2,30.4,0c7.2,7.2-7.2,23.2,0,30.4
		c8.2,8.2,34.7,0,34.7,0s8.2,26.5,0,34.7c-7.2,7.2-23.2-7.2-30.4,0c-7.2,7.2-7.2,23.2,0,30.4c7.2,7.2,23.2-7.2,30.4,0
		C344.5,84.5,336.3,111,336.3,111z"/>

		<path id="path5043-0-6-1-1-0-9-7-3-3-6_1_"  class="st2" d="
		M535.9,111c0,0,8.2-26.5,0-34.7c-7.2-7.2-23.2,7.2-30.4,0c-7.2-7.2-7.2-23.2,0-30.4c7.2-7.2,23.2,7.2,30.4,0c8.2-8.2,0-34.7,0-34.7
		s26.5-8.2,34.7,0c7.2,7.2-7.2,23.2,0,30.4c7.2,7.2,23.2,7.2,30.4,0c7.2-7.2-7.2-23.2,0-30.4c8.2-8.2,34.7,0,34.7,0
		s-8.2,26.5,0,34.7c7.2,7.2,23.2-7.2,30.4,0c7.2,7.2,7.2,23.2,0,30.4c-7.2,7.2-23.2-7.2-30.4,0c-8.2,8.2,0,34.7,0,34.7
		s-26.5,8.2-34.7,0c-7.2-7.2,7.2-23.2,0-30.4c-7.2-7.2-23.2-7.2-30.4,0c-7.2,7.2,7.2,23.2,0,30.4C562.5,119.2,535.9,111,535.9,111z"
		/>

		<path id="path5043-0-1-94-4-9-0-13-2-0-7_1_"  class="st3" d="
		M535.9,111c0,0-26.5-8.2-34.7,0c-7.2,7.2,7.2,23.2,0,30.4c-7.2,7.2-23.2,7.2-30.4,0c-7.2-7.2,7.2-23.2,0-30.4
		c-8.2-8.2-34.7,0-34.7,0s-8.2-26.5,0-34.7c7.2-7.2,23.2,7.2,30.4,0c7.2-7.2,7.2-23.2,0-30.4c-7.2-7.2-23.2,7.2-30.4,0
		c-8.2-8.2,0-34.7,0-34.7s26.5,8.2,34.7,0c7.2-7.2-7.2-23.2,0-30.4c7.2-7.2,23.2-7.2,30.4,0c7.2,7.2-7.2,23.2,0,30.4
		c8.2,8.2,34.7,0,34.7,0s8.2,26.5,0,34.7c-7.2,7.2-23.2-7.2-30.4,0c-7.2,7.2-7.2,23.2,0,30.4c7.2,7.2,23.2-7.2,30.4,0
		C544.1,84.5,535.9,111,535.9,111z"/>

		<path id="path5043-0-33-7-8-3-3-2-6-6_3_"  class="st2" d="
		M37.1,210.2c0,0-26.5-8.2-34.7,0c-7.2,7.2,7.2,23.2,0,30.4c-7.2,7.2-23.2,7.2-30.4,0c-7.2-7.2,7.2-23.2,0-30.4
		c-8.2-8.2-34.7,0-34.7,0s-8.2-26.5,0-34.7c7.2-7.2,23.2,7.2,30.4,0c7.2-7.2,7.2-23.2,0-30.4c-7.2-7.2-23.2,7.2-30.4,0
		c-8.2-8.2,0-34.7,0-34.7s26.5,8.2,34.7,0c7.2-7.2-7.2-23.2,0-30.4c7.2-7.2,23.2-7.2,30.4,0c7.2,7.2-7.2,23.2,0,30.4
		c8.2,8.2,34.7,0,34.7,0s8.2,26.5,0,34.7c-7.2,7.2-23.2-7.2-30.4,0c-7.2,7.2-7.2,23.2,0,30.4c7.2,7.2,23.2-7.2,30.4,0
		C45.3,183.6,37.1,210.2,37.1,210.2z"/>

		<path id="path5043-0-33-7-8-3-3-2-8-1_3_"  class="st1" d="
		M236.8,210.2c0,0-26.5-8.2-34.7,0c-7.2,7.2,7.2,23.2,0,30.4c-7.2,7.2-23.2,7.2-30.4,0c-7.2-7.2,7.2-23.2,0-30.4
		c-8.2-8.2-34.7,0-34.7,0s-8.2-26.5,0-34.7c7.2-7.2,23.2,7.2,30.4,0c7.2-7.2,7.2-23.2,0-30.4c-7.2-7.2-23.2,7.2-30.4,0
		c-8.2-8.2,0-34.7,0-34.7s26.5,8.2,34.7,0c7.2-7.2-7.2-23.2,0-30.4c7.2-7.2,23.2-7.2,30.4,0c7.2,7.2-7.2,23.2,0,30.4
		c8.2,8.2,34.7,0,34.7,0s8.2,26.5,0,34.7c-7.2,7.2-23.2-7.2-30.4,0c-7.2,7.2-7.2,23.2,0,30.4c7.2,7.2,23.2-7.2,30.4,0
		C244.9,183.6,236.8,210.2,236.8,210.2z"/>

		<path id="path5043-0-6-9-84-1-9-9-4-6-6-5_3_"  class="st4" d="
		M37.1,210.2c0,0,8.2-26.5,0-34.7c-7.2-7.2-23.2,7.2-30.4,0c-7.2-7.2-7.2-23.2,0-30.4c7.2-7.2,23.2,7.2,30.4,0
		c8.2-8.2,0-34.7,0-34.7s26.5-8.2,34.7,0c7.2,7.2-7.2,23.2,0,30.4c7.2,7.2,23.2,7.2,30.4,0c7.2-7.2-7.2-23.2,0-30.4
		c8.2-8.2,34.7,0,34.7,0s-8.2,26.5,0,34.7c7.2,7.2,23.2-7.2,30.4,0c7.2,7.2,7.2,23.2,0,30.4c-7.2,7.2-23.2-7.2-30.4,0
		c-8.2,8.2,0,34.7,0,34.7s-26.5,8.2-34.7,0c-7.2-7.2,7.2-23.2,0-30.4c-7.2-7.2-23.2-7.2-30.4,0c-7.2,7.2,7.2,23.2,0,30.4
		C63.7,218.4,37.1,210.2,37.1,210.2z"/>

		<path id="path5043-0-33-7-8-3-3-2-6-6_2_"  class="st2" d="
		M436.1,210.2c0,0-26.5-8.2-34.7,0c-7.2,7.2,7.2,23.2,0,30.4c-7.2,7.2-23.2,7.2-30.4,0c-7.2-7.2,7.2-23.2,0-30.4
		c-8.2-8.2-34.7,0-34.7,0s-8.2-26.5,0-34.7c7.2-7.2,23.2,7.2,30.4,0c7.2-7.2,7.2-23.2,0-30.4c-7.2-7.2-23.2,7.2-30.4,0
		c-8.2-8.2,0-34.7,0-34.7s26.5,8.2,34.7,0c7.2-7.2-7.2-23.2,0-30.4c7.2-7.2,23.2-7.2,30.4,0c7.2,7.2-7.2,23.2,0,30.4
		c8.2,8.2,34.7,0,34.7,0s8.2,26.5,0,34.7c-7.2,7.2-23.2-7.2-30.4,0c-7.2,7.2-7.2,23.2,0,30.4c7.2,7.2,23.2-7.2,30.4,0
		C444.3,183.6,436.1,210.2,436.1,210.2z"/>

		<path id="path5043-0-6-9-84-1-9-9-4-6-4-4_2_"  class="st3" d="
		M236.5,210.2c0,0,8.2-26.5,0-34.7c-7.2-7.2-23.2,7.2-30.4,0c-7.2-7.2-7.2-23.2,0-30.4c7.2-7.2,23.2,7.2,30.4,0
		c8.2-8.2,0-34.7,0-34.7s26.5-8.2,34.7,0c7.2,7.2-7.2,23.2,0,30.4c7.2,7.2,23.2,7.2,30.4,0c7.2-7.2-7.2-23.2,0-30.4
		c8.2-8.2,34.7,0,34.7,0s-8.2,26.5,0,34.7c7.2,7.2,23.2-7.2,30.4,0c7.2,7.2,7.2,23.2,0,30.4c-7.2,7.2-23.2-7.2-30.4,0
		c-8.2,8.2,0,34.7,0,34.7s-26.5,8.2-34.7,0c-7.2-7.2,7.2-23.2,0-30.4c-7.2-7.2-23.2-7.2-30.4,0c-7.2,7.2,7.2,23.2,0,30.4
		C263,218.4,236.5,210.2,236.5,210.2z"/>

		<path id="path5043-0-33-7-8-3-3-2-8-1_2_"  class="st1" d="
		M635.8,210.2c0,0-26.5-8.2-34.7,0c-7.2,7.2,7.2,23.2,0,30.4c-7.2,7.2-23.2,7.2-30.4,0c-7.2-7.2,7.2-23.2,0-30.4
		c-8.2-8.2-34.7,0-34.7,0s-8.2-26.5,0-34.7c7.2-7.2,23.2,7.2,30.4,0c7.2-7.2,7.2-23.2,0-30.4c-7.2-7.2-23.2,7.2-30.4,0
		c-8.2-8.2,0-34.7,0-34.7s26.5,8.2,34.7,0c7.2-7.2-7.2-23.2,0-30.4c7.2-7.2,23.2-7.2,30.4,0c7.2,7.2-7.2,23.2,0,30.4
		c8.2,8.2,34.7,0,34.7,0s8.2,26.5,0,34.7c-7.2,7.2-23.2-7.2-30.4,0c-7.2,7.2-7.2,23.2,0,30.4c7.2,7.2,23.2-7.2,30.4,0
		C643.9,183.6,635.8,210.2,635.8,210.2z"/>

		<path id="path5043-0-6-9-84-1-9-9-4-6-6-5_2_"  class="st4" d="
		M436.1,210.2c0,0,8.2-26.5,0-34.7c-7.2-7.2-23.2,7.2-30.4,0c-7.2-7.2-7.2-23.2,0-30.4c7.2-7.2,23.2,7.2,30.4,0
		c8.2-8.2,0-34.7,0-34.7s26.5-8.2,34.7,0c7.2,7.2-7.2,23.2,0,30.4c7.2,7.2,23.2,7.2,30.4,0c7.2-7.2-7.2-23.2,0-30.4
		c8.2-8.2,34.7,0,34.7,0s-8.2,26.5,0,34.7c7.2,7.2,23.2-7.2,30.4,0c7.2,7.2,7.2,23.2,0,30.4c-7.2,7.2-23.2-7.2-30.4,0
		c-8.2,8.2,0,34.7,0,34.7s-26.5,8.2-34.7,0c-7.2-7.2,7.2-23.2,0-30.4c-7.2-7.2-23.2-7.2-30.4,0c-7.2,7.2,7.2,23.2,0,30.4
		C462.7,218.4,436.1,210.2,436.1,210.2z"/>

		<path id="path5043-0-6-1-1-0-9-7-3-0-6_5_"  class="st1" d="
		M735.3,111c0,0,8.2-26.5,0-34.7c-7.2-7.2-23.2,7.2-30.4,0c-7.2-7.2-7.2-23.2,0-30.4c7.2-7.2,23.2,7.2,30.4,0c8.2-8.2,0-34.7,0-34.7
		s26.5-8.2,34.7,0c7.2,7.2-7.2,23.2,0,30.4c7.2,7.2,23.2,7.2,30.4,0c7.2-7.2-7.2-23.2,0-30.4c8.2-8.2,34.7,0,34.7,0
		s-8.2,26.5,0,34.7c7.2,7.2,23.2-7.2,30.4,0c7.2,7.2,7.2,23.2,0,30.4c-7.2,7.2-23.2-7.2-30.4,0c-8.2,8.2,0,34.7,0,34.7
		s-26.5,8.2-34.7,0c-7.2-7.2,7.2-23.2,0-30.4c-7.2-7.2-23.2-7.2-30.4,0c-7.2,7.2,7.2,23.2,0,30.4C761.9,119.2,735.3,111,735.3,111z"
		/>

		<path id="path5043-0-1-94-4-9-0-13-2-6-0_5_"  class="st4" d="
		M735.3,111c0,0-26.5-8.2-34.7,0c-7.2,7.2,7.2,23.2,0,30.4c-7.2,7.2-23.2,7.2-30.4,0c-7.2-7.2,7.2-23.2,0-30.4
		c-8.2-8.2-34.7,0-34.7,0s-8.2-26.5,0-34.7c7.2-7.2,23.2,7.2,30.4,0c7.2-7.2,7.2-23.2,0-30.4c-7.2-7.2-23.2,7.2-30.4,0
		c-8.2-8.2,0-34.7,0-34.7s26.5,8.2,34.7,0c7.2-7.2-7.2-23.2,0-30.4c7.2-7.2,23.2-7.2,30.4,0c7.2,7.2-7.2,23.2,0,30.4
		c8.2,8.2,34.7,0,34.7,0s8.2,26.5,0,34.7c-7.2,7.2-23.2-7.2-30.4,0c-7.2,7.2-7.2,23.2,0,30.4c7.2,7.2,23.2-7.2,30.4,0
		C743.5,84.5,735.3,111,735.3,111z"/>

		<path id="path5043-0-1-94-4-9-0-13-2-0-7_5_"  class="st3" d="
		M934.9,111c0,0-26.5-8.2-34.7,0c-7.2,7.2,7.2,23.2,0,30.4c-7.2,7.2-23.2,7.2-30.4,0c-7.2-7.2,7.2-23.2,0-30.4
		c-8.2-8.2-34.7,0-34.7,0s-8.2-26.5,0-34.7c7.2-7.2,23.2,7.2,30.4,0c7.2-7.2,7.2-23.2,0-30.4c-7.2-7.2-23.2,7.2-30.4,0
		c-8.2-8.2,0-34.7,0-34.7s26.5,8.2,34.7,0c7.2-7.2-7.2-23.2,0-30.4c7.2-7.2,23.2-7.2,30.4,0c7.2,7.2-7.2,23.2,0,30.4
		c8.2,8.2,34.7,0,34.7,0s8.2,26.5,0,34.7c-7.2,7.2-23.2-7.2-30.4,0c-7.2,7.2-7.2,23.2,0,30.4c7.2,7.2,23.2-7.2,30.4,0
		C943.1,84.5,934.9,111,934.9,111z"/>

		<path id="path5043-0-33-7-8-3-3-2-6-6_4_"  class="st2" d="
		M835.1,210.2c0,0-26.5-8.2-34.7,0c-7.2,7.2,7.2,23.2,0,30.4c-7.2,7.2-23.2,7.2-30.4,0c-7.2-7.2,7.2-23.2,0-30.4
		c-8.2-8.2-34.7,0-34.7,0s-8.2-26.5,0-34.7c7.2-7.2,23.2,7.2,30.4,0c7.2-7.2,7.2-23.2,0-30.4c-7.2-7.2-23.2,7.2-30.4,0
		c-8.2-8.2,0-34.7,0-34.7s26.5,8.2,34.7,0c7.2-7.2-7.2-23.2,0-30.4c7.2-7.2,23.2-7.2,30.4,0c7.2,7.2-7.2,23.2,0,30.4
		c8.2,8.2,34.7,0,34.7,0s8.2,26.5,0,34.7c-7.2,7.2-23.2-7.2-30.4,0c-7.2,7.2-7.2,23.2,0,30.4c7.2,7.2,23.2-7.2,30.4,0
		C843.3,183.6,835.1,210.2,835.1,210.2z"/>

		<path id="path5043-0-6-9-84-1-9-9-4-6-4-4_4_"  class="st3" d="
		M635.5,210.2c0,0,8.2-26.5,0-34.7c-7.2-7.2-23.2,7.2-30.4,0c-7.2-7.2-7.2-23.2,0-30.4c7.2-7.2,23.2,7.2,30.4,0
		c8.2-8.2,0-34.7,0-34.7s26.5-8.2,34.7,0c7.2,7.2-7.2,23.2,0,30.4c7.2,7.2,23.2,7.2,30.4,0c7.2-7.2-7.2-23.2,0-30.4
		c8.2-8.2,34.7,0,34.7,0s-8.2,26.5,0,34.7c7.2,7.2,23.2-7.2,30.4,0c7.2,7.2,7.2,23.2,0,30.4c-7.2,7.2-23.2-7.2-30.4,0
		c-8.2,8.2,0,34.7,0,34.7s-26.5,8.2-34.7,0c-7.2-7.2,7.2-23.2,0-30.4c-7.2-7.2-23.2-7.2-30.4,0c-7.2,7.2,7.2,23.2,0,30.4
		C662,218.4,635.5,210.2,635.5,210.2z"/>

		<path id="path5043-0-6-9-84-1-9-9-4-6-6-5_4_"  class="st4" d="
		M835.1,210.2c0,0,8.2-26.5,0-34.7c-7.2-7.2-23.2,7.2-30.4,0c-7.2-7.2-7.2-23.2,0-30.4c7.2-7.2,23.2,7.2,30.4,0
		c8.2-8.2,0-34.7,0-34.7s26.5-8.2,34.7,0c7.2,7.2-7.2,23.2,0,30.4c7.2,7.2,23.2,7.2,30.4,0c7.2-7.2-7.2-23.2,0-30.4
		c8.2-8.2,34.7,0,34.7,0s-8.2,26.5,0,34.7c7.2,7.2,23.2-7.2,30.4,0c7.2,7.2,7.2,23.2,0,30.4c-7.2,7.2-23.2-7.2-30.4,0
		c-8.2,8.2,0,34.7,0,34.7s-26.5,8.2-34.7,0c-7.2-7.2,7.2-23.2,0-30.4c-7.2-7.2-23.2-7.2-30.4,0c-7.2,7.2,7.2,23.2,0,30.4
		C861.7,218.4,835.1,210.2,835.1,210.2z"/>
</g>
</svg>
