<?xml version="1.0" encoding="utf-8"?>
<!-- Generator: Adobe Illustrator 21.1.0, SVG Export Plug-In . SVG Version: 6.00 Build 0)  -->
<svg version="1.1" id="Layer_1" xmlns="http://www.w3.org/2000/svg" xmlns:xlink="http://www.w3.org/1999/xlink" x="0px" y="0px"
	 viewBox="0 0 1024 1024" style="enable-background:new 0 0 1024 1024;" xml:space="preserve">
<style type="text/css">
	.st0{clip-path:url(#SVGID_2_);}
	.st1{fill:#FF931E;}
	.st2{fill:#FF1D25;}
	.st3{fill:#3FA9F5;}
	.st4{fill:#7AC943;}
</style>
<g>
	<defs>
		<path id="SVGID_1_" d="M282.6,1024c-23.3,0-45.6-4.1-65.2-12.9c-21.2-8.8-39.3-22.3-55.4-39.3c-15.5-17.1-26.9-38.3-34.7-62.1
			c-6.2-20.2-9.3-43-9.3-67.8v-658c0-27.4,3.1-51.3,10.4-72.5c8.3-26.4,22.3-48.1,40.4-65.7C186.3,29,208,17.1,233.9,9.3
			C255.2,3.1,278.5,0,305.4,0h221.6c35.2,0,67.3,1.6,94.7,4.1c30,3.1,55.4,7.8,77.7,14c22.8,6.2,44.5,15,64.2,25.4
			c20.2,10.9,39.3,24.3,56.4,39.3c17.1,15,32.6,32.6,45.6,51.3s23.8,38.8,32.6,60.6c8.8,21.2,15,44,19.2,67.3
			c4.1,22.8,6.2,47.1,6.2,72c0,53.3-8.8,102-25.9,143.9c-18.1,44.5-46.1,82.8-82.3,113.4c-35.2,29.5-78.7,51.3-128.9,65.7
			c-46.6,12.9-100.4,19.7-160.5,19.7h-79.7v164.1c0,24.8-3.1,48.1-9.8,68.9c-7.2,23.8-19.2,45-35.2,62.1
			c-15.5,17.1-33.7,30-53.8,38.8C327.1,1019.3,305.4,1024,282.6,1024z M446.2,390.9H485c17.1,0,32.6-1,46.6-2.6
			c12.4-1.6,23.3-3.6,32.6-6.7c6.7-2.1,11.9-4.7,16-7.2c3.1-2.1,5.2-4.1,7.2-6.7c1.6-2.1,2.6-5.2,3.6-8.8c1.6-5.7,2.6-12.9,2.6-21.7
			c0-9.8-1-18.1-3.6-24.8c-1.6-4.7-4.1-8.8-7.2-12.4c-1.6-1-7.2-4.1-20.2-7.8c-19.2-4.7-45.6-7.2-77.7-7.2h-38.8V390.9z"/>
	</defs>
	<clipPath id="SVGID_2_">
		<use xlink:href="#SVGID_1_"  style="overflow:visible;"/>
	</clipPath>
	<g class="st0">
		<path id="path5043-0-6-1-1-0-9-7-3-0-6" class="st1" d="M16,589.1c0,0,42.5-137.2,0-179.6c-37.3-37.3-120.1,37.3-157.4,0
			s-37.3-120.1,0-157.4s120.1,37.3,157.4,0c42.5-42.5,0-179.6,0-179.6s137.2-42.5,179.6,0c37.3,37.3-37.3,120.1,0,157.4
			s120.1,37.3,157.4,0c37.3-37.3-37.3-120.1,0-157.4c42.5-42.5,179.6,0,179.6,0s-42.5,137.2,0,179.6c37.3,37.3,120.1-37.3,157.4,0
			c37.3,37.3,37.3,120.1,0,157.4c-37.3,37.3-120.1-37.3-157.4,0c-42.5,42.5,0,179.6,0,179.6s-137.2,42.5-179.6,0
			c-37.3-37.3,37.3-120.1,0-157.4c-37.3-37.3-120.1-37.3-157.4,0s37.3,120.1,0,157.4C153.7,631.6,16,589.1,16,589.1z"/>
		<path id="path5043-0-1-94-4-9-0-13-2-0-7" class="st2" d="M1049.3,589.1c0,0-137.2-42.5-179.6,0c-37.3,37.3,37.3,120.1,0,157.4
			c-37.3,37.3-120.1,37.3-157.4,0s37.3-120.1,0-157.4c-42.5-42.5-179.6,0-179.6,0s-42.5-137.2,0-179.6c37.3-37.3,120.1,37.3,157.4,0
			c37.3-37.3,37.3-120.1,0-157.4c-37.3-37.3-120.1,37.3-157.4,0c-42.5-42.5,0-179.6,0-179.6s137.2,42.5,179.6,0
			c37.3-37.3-37.3-120.1,0-157.4s120.1-37.3,157.4,0c37.3,37.3-37.3,120.1,0,157.4c42.5,42.5,179.6,0,179.6,0s42.5,137.2,0,179.6
			c-37.3,37.3-120.1-37.3-157.4,0s-37.3,120.1,0,157.4s120.1-37.3,157.4,0C1091.8,451.9,1049.3,589.1,1049.3,589.1z"/>
		<path id="path5043-0-33-7-8-3-3-2-6-6_3_" class="st3" d="M532.6,1102.7c0,0-137.2-42.5-179.6,0c-37.3,37.3,37.3,120.1,0,157.4
			c-37.3,37.3-120.1,37.3-157.4,0c-37.3-37.3,37.3-120.1,0-157.4c-42.5-42.5-179.6,0-179.6,0S-26.5,965.5,16,923
			c37.3-37.3,120.1,37.3,157.4,0s37.3-120.1,0-157.4s-120.1,37.3-157.4,0C-26.5,723.2,16,586,16,586s137.2,42.5,179.6,0
			c37.3-37.3-37.3-120.1,0-157.4s120.1-37.3,157.4,0s-37.3,120.1,0,157.4c42.5,42.5,179.6,0,179.6,0s42.5,137.2,0,179.6
			c-37.3,37.3-120.1-37.3-157.4,0s-37.3,120.1,0,157.4s120.1-37.3,157.4,0C575.1,965,532.6,1102.7,532.6,1102.7z"/>
		<path id="path5043-0-6-9-84-1-9-9-4-6-6-5_3_" class="st4" d="M532.6,1102.7c0,0,42.5-137.2,0-179.6
			c-37.3-37.3-120.1,37.3-157.4,0s-37.3-120.1,0-157.4s120.1,37.3,157.4,0c42.5-42.5,0-179.6,0-179.6s137.2-42.5,179.6,0
			c37.3,37.3-37.3,120.1,0,157.4c37.3,37.3,120.1,37.3,157.4,0c37.3-37.3-37.3-120.1,0-157.4c42.5-42.5,179.6,0,179.6,0
			s-42.5,137.2,0,179.6c37.3,37.3,120.1-37.3,157.4,0c37.3,37.3,37.3,120.1,0,157.4c-37.3,37.3-120.1-37.3-157.4,0
			c-42.5,42.5,0,179.6,0,179.6s-137.2,42.5-179.6,0c-37.3-37.3,37.3-120.1,0-157.4c-37.3-37.3-120.1-37.3-157.4,0
			s37.3,120.1,0,157.4C670.3,1145.1,532.6,1102.7,532.6,1102.7z"/>
	</g>
</g>
</svg>
