<?xml version="1.0" encoding="utf-8"?>
<!-- Generator: Adobe Illustrator 22.0.1, SVG Export Plug-In . SVG Version: 6.00 Build 0)  -->
<svg version="1.1" id="Layer_1" xmlns="http://www.w3.org/2000/svg" xmlns:xlink="http://www.w3.org/1999/xlink" x="0px" y="0px"
	 viewBox="0 0 2000 440" style="enable-background:new 0 0 2000 440;" xml:space="preserve">
<style type="text/css">
	.st0{clip-path:url(#SVGID_2_);}
	.st1{fill:#FF931E;}
	.st2{fill:#3FA9F5;}
	.st3{fill:#FF1D25;}
	.st4{fill:#7AC943;}
</style>
<g>
	<defs>
		<path id="SVGID_1_" d="M1990,345.5c-3.2-8-8.2-14.9-14.5-20.7c-6.5-5.8-14.2-10.1-23.1-12.9c-7.3-2.2-15.5-3.5-24.4-3.5h-135.5
			V272h116.9c8.8,0,16.8-1.1,24.2-3.5c8.8-2.8,16.6-7.1,23.1-13.2c6-5.8,10.6-12.5,13.6-20.1c2.8-7.1,4.3-14.9,4.3-23.1
			c0-8.4-1.5-16.2-4.5-23.3c-3.2-7.5-8-14.5-14.2-20.1c-6.3-5.8-14-9.9-22.6-12.5c-7.1-2.2-15.1-3.2-23.7-3.2h-117.1v-22.9h130.1
			c8.8,0,17-1.1,24.2-3.2c9.1-2.6,16.8-6.9,23.1-12.9c6.3-5.8,11.2-12.7,14.5-20.5c3-7.3,4.5-15.3,4.5-23.7s-1.5-16.4-4.5-23.7
			c-3.2-7.8-8-14.5-14.2-20.3c-6.5-5.8-14.2-10.1-23.1-12.9c-7.3-2.2-15.3-3.2-24.2-3.2h-190.2c-6.9,0-13.6,0.6-19.6,1.7
			c-6.9,1.3-13.2,3.2-19,5.8c-6.7,3-12.7,7.1-17.9,12.3c-5.2,5-9.3,11-12.5,17.7c-2.8,5.8-4.7,12.3-6,19.2c-1.1,6-1.7,12.7-1.7,19.8
			v239.2c-0.9-0.9-1.7-1.7-2.6-2.4c-6.5-6-14.5-10.4-23.3-13.4c-7.5-2.4-16.2-3.7-25.2-3.7h-113.5V79.6c0-10.6-1.3-20.3-3.9-28.7
			c-3-10.1-8.2-19-14.9-26.3c-6.5-7.1-14.2-12.3-23.1-16c-8.2-3.5-17.3-5.2-27-5.2s-18.8,1.7-27,5.2c-8.6,3.7-16.4,9.3-22.9,16.4
			s-11.2,16-14.2,26.1c-0.9,3-1.5,6-2.2,9.3c-3.5-16.2-11.4-26.7-18.3-33c-12.7-11.4-30.2-17.3-51.6-17.3h-202.3
			c-8.6,0-16.8,1.1-23.9,3.2c-8.6,2.6-16.4,6.9-22.6,12.7c-4.5,4.1-8.2,8.6-11,13.6c-3-5-6.5-8.8-9.7-11.9
			c-12.9-11.9-30.4-17.7-51.8-17.7H762.5c-8.6,0-16.8,1.1-23.9,3.2c-8.6,2.6-16.4,6.9-22.6,12.7s-11,12.5-14.2,20.3
			c-1.5,3.5-2.4,6.9-3.2,10.6c-0.4-1.9-0.9-3.9-1.5-5.6c-3-10.1-8.2-19-14.9-26.3c-6.5-7.1-14.2-12.3-23.1-16
			c-8.2-3.5-17.3-5.2-27-5.2c-9.7,0-18.8,1.7-27,5.2c-8.8,3.7-16.6,9.1-23.1,16.4c-6.5,7.1-11.2,16-14.2,26.1
			c-2.6,8.4-3.7,17.9-3.7,28.5v176.4c0,12.5-1.1,23.1-3.5,31.7c-1.7,6.9-4.3,12.5-7.3,16.4c-2.2,2.8-5.2,4.7-9.5,6.5
			c-6.3,2.4-14.5,3.5-24.6,3.5c-7.8,0-14.5-0.6-19.8-1.9c-4.1-1.1-7.5-2.4-10.1-3.9c-2.6-1.7-4.5-3.5-6.3-5.8
			c-1.7-2.4-3.2-5.2-4.3-8.4c-1.5-4.7-2.8-10.4-3.7-16.6c-0.9-6.9-1.3-14.7-1.3-23.1V80c0-10.4-1.3-19.8-3.9-28.5
			c-3-10.1-7.8-18.8-14.2-26.1c-6.5-7.3-14.5-12.7-23.3-16.4c-8.4-3.5-17.5-5.2-27.4-5.2c-9.7,0-18.8,1.7-27,5.2
			c-8.6,3.7-16.4,9.3-22.9,16.4c-6.5,7.1-11.2,16-14.2,26.1C338.2,60,337,69.4,337,80v31.9c-1.7-7.1-3.9-14.2-6.5-20.9
			c-3.7-9.1-8.2-17.5-13.6-25.2c-5.4-7.8-11.9-14.9-19-21.4c-7.1-6.3-15.1-11.9-23.5-16.4c-8.4-4.5-17.3-8-26.7-10.6
			c-9.3-2.6-19.8-4.5-32.4-5.8c-11.9-1.1-25.2-1.5-39.9-1.5H82.9c-11,0-20.7,1.1-29.6,3.7c-10.6,3-19.8,8.2-27.2,15.1
			C18.4,36,12.8,45.3,9.3,56.3C6.5,65.3,5,75.1,5,86.5v274.1c0,10.4,1.3,19.8,3.9,28.3c3,9.9,8,18.5,14.5,25.9
			c6.5,7.1,14.2,12.7,23.1,16.4c8.4,3.5,17.5,5.4,27.2,5.4s18.8-1.9,27-5.4c8.4-3.7,16-9.1,22.4-16.2c6.7-7.3,11.6-16,14.7-25.9
			c2.6-8.6,4.1-18.1,4.1-28.7V292h33.6c25,0,47.5-2.8,66.9-8.2c20.9-5.8,39-15.1,53.7-27.4c15.1-12.7,26.7-28.7,34.3-47.2
			c2.8-6.9,5-14,6.7-21.6v63.4c0,14.7,0.9,28.7,2.4,41.4c1.7,13.4,4.3,25.7,7.8,37.1c3.7,12.1,8.4,23.1,14.2,33.2
			c6,10.4,13.2,19.8,21.4,28c8.2,8.2,17.7,15.3,28.3,21.4c10.1,5.8,21.4,10.6,33.6,14.2c11.4,3.5,24.2,6,37.7,7.8
			c12.9,1.7,27.2,2.4,42.3,2.4c12.9,0,25.2-0.9,36.7-2.4c11.9-1.7,23.1-4.1,33.4-7.3c10.8-3.5,20.9-8,30.4-13.6
			c9.5-5.6,18.5-12.3,26.7-19.8c9.5-8.8,17.7-18.8,24.4-29.3c0.6-1.1,1.5-2.4,2.2-3.5c0.2,9.7,1.9,18.8,5.4,27.2
			c3.9,9.3,9.7,17.3,17.3,23.9s16.6,11.6,27,14.7c8.8,2.6,19,3.9,29.8,3.9h230.8c8.6,0,16.8-1.1,23.9-3.2c6.9-1.9,12.9-5,18.3-9.1
			c5.6,3.5,11.6,6.3,18.3,8.2c8.8,2.6,19,3.9,29.8,3.9h231c8.6,0,16.8-1.1,23.9-3.2c8.8-2.6,16.6-6.9,22.9-12.7
			c4.1-3.7,7.5-8,10.4-12.5c2.2,3,4.3,5.8,6.9,8.4c7.1,7.3,16.4,12.7,27.2,16c8.8,2.8,18.5,4.1,29.8,4.1h173.8
			c9.1,0,17.5-1.1,25-3.5c9.1-2.8,16.8-7.1,23.3-12.7c5.4-4.7,9.7-10.1,12.9-16.2c2.6,4.5,5.8,8.8,9.5,12.5
			c7.1,7.3,16.4,12.7,27.2,16c8.8,2.8,18.5,4.1,29.8,4.1h195.9c8.8,0,17-1.1,24.4-3.5c8.8-2.8,16.6-7.1,23.1-12.9
			c6.3-5.8,11.2-12.7,14.5-20.5c3-7.3,4.7-15.5,4.7-23.9C1994.8,361.1,1993.1,352.9,1990,345.5z M202.1,159.6
			c-0.4,1.5-0.9,2.6-1.5,3.7c-0.9,1.1-1.7,1.9-3,2.8c-1.7,1.1-4.1,2.2-6.7,3c-3.9,1.3-8.4,2.2-13.6,2.8c-5.8,0.6-12.3,1.1-19.4,1.1
			h-16.2v-44.2h16.2c13.4,0,24.4,1.1,32.4,3c5.4,1.3,7.8,2.8,8.4,3.2c1.3,1.5,2.4,3.2,3,5.2c1.1,2.8,1.5,6.3,1.5,10.4
			C203.2,154.2,202.8,157.2,202.1,159.6z M712,294.2c-1.5,1.7-3,3.5-4.7,5.6c-1.7,1.9-3.7,4.3-5.6,6.5c-2.2,2.6-4.1,5-5.8,6.9
			c-0.4,0.4-0.6,0.9-1.1,1.3c1.5-6.9,2.6-14,3.5-21.6c1.5-12.7,2.2-27,2.2-42.1V91.2c0.2,0.9,0.6,1.7,1.1,2.4
			c3.2,7.5,8.2,14.2,14.7,19.8c6.3,5.4,13.8,9.5,22.4,12.1c7.1,2.2,15.1,3,23.5,3h87.8L712,294.2z M1033.4,294.2
			c-1.5,1.7-3,3.5-4.7,5.6c-1.7,1.9-3.7,4.3-5.6,6.5c-2.2,2.6-4.1,5-5.8,6.9c-0.6,0.9-1.3,1.7-1.9,2.4c-1.3-0.4-2.6-0.9-3.7-1.1
			c-6.9-1.9-14.7-2.8-23.3-2.8H869.5l126-150.1c6.9-8,12.7-15.1,17.3-20.9c5.2-6.5,9.1-11.9,11.9-16.4c3-4.7,5.6-10.1,7.3-16
			c1.7,1.9,3.5,3.7,5.4,5.4c6.3,5.4,13.8,9.5,22.4,12.1c7.1,2.2,15.1,3,23.5,3h87.8L1033.4,294.2z M1333.2,314.5
			c-6.9-1.9-14.7-2.8-23.3-2.8h-118.8l126-150.1c6.9-8,12.7-15.1,17.3-20.9c5.2-6.5,9.1-11.9,11.9-16.4c3.5-5.4,6-11.6,8-18.3V325
			C1348.3,320.3,1341.2,316.6,1333.2,314.5z"/>
	</defs>
	<clipPath id="SVGID_2_">
		<use xlink:href="#SVGID_1_"  style="overflow:visible;"/>
	</clipPath>
	<g class="st0">
		<path id="path5043-0-6-1-1-0-9-7-3-0-6" class="st1" d="M-37.5,233.8c0,0,17.7-57.2,0-74.8c-15.5-15.5-50,15.5-65.6,0
			s-15.5-50,0-65.6s50,15.5,65.6,0c17.7-17.7,0-74.8,0-74.8s57.4-17.7,74.8,0c15.5,15.5-15.5,50,0,65.6s50,15.5,65.6,0
			s-15.5-50,0-65.6c17.7-17.7,74.8,0,74.8,0s-17.7,57.2,0,74.8c15.5,15.5,50-15.5,65.6,0c15.5,15.5,15.5,50,0,65.6s-50-15.5-65.6,0
			c-17.7,17.7,0,74.8,0,74.8s-57.2,17.7-74.8,0c-15.5-15.5,15.5-50,0-65.6s-50-15.5-65.6,0s15.5,50,0,65.6
			C19.9,251.5-37.5,233.8-37.5,233.8z"/>
		<path id="path5043-0-6-1-1-0-9-7-3-3-6" class="st2" d="M393,233.8c0,0,17.7-57.2,0-74.8c-15.5-15.5-50,15.5-65.6,0
			s-15.5-50,0-65.6s50,15.5,65.6,0c17.7-17.7,0-74.8,0-74.8s57.2-17.7,74.8,0c15.5,15.5-15.5,50,0,65.6s50,15.5,65.6,0
			s-15.5-50,0-65.6c17.7-17.7,74.8,0,74.8,0s-17.7,57.2,0,74.8c15.5,15.5,50-15.5,65.6,0s15.5,50,0,65.6c-15.5,15.5-50-15.5-65.6,0
			c-17.7,17.7,0,74.8,0,74.8s-57.2,17.7-74.8,0c-15.5-15.5,15.5-50,0-65.6s-50-15.5-65.6,0s15.5,50,0,65.6
			C450.4,251.5,393,233.8,393,233.8z"/>
		<path id="path5043-0-1-94-4-9-0-13-2-0-7" class="st3" d="M393,233.8c0,0-57.2-17.7-74.8,0c-15.5,15.5,15.5,50,0,65.6
			c-15.5,15.5-50,15.5-65.6,0c-15.5-15.5,15.5-50,0-65.6c-17.7-17.7-74.8,0-74.8,0s-17.7-57.2,0-74.8c15.5-15.5,50,15.5,65.6,0
			s15.5-50,0-65.6s-50,15.5-65.6,0c-17.7-17.7,0-74.8,0-74.8s57.2,17.7,74.8,0c15.5-15.5-15.5-50,0-65.6s50-15.5,65.6,0
			c15.5,15.5-15.5,50,0,65.6c17.7,17.7,74.8,0,74.8,0s17.7,57.2,0,74.8c-15.5,15.5-50-15.5-65.6,0s-15.5,50,0,65.6s50-15.5,65.6,0
			C410.7,176.6,393,233.8,393,233.8z"/>
		<path id="path5043-0-6-1-1-0-9-7-3-0-6_1_" class="st1" d="M823.1,233.8c0,0,17.7-57.2,0-74.8c-15.5-15.5-50,15.5-65.6,0
			c-15.5-15.5-15.5-50,0-65.6c15.5-15.5,50,15.5,65.6,0c17.7-17.7,0-74.8,0-74.8s57.2-17.7,74.8,0c15.5,15.5-15.5,50,0,65.6
			c15.5,15.5,50,15.5,65.6,0c15.5-15.5-15.5-50,0-65.6c17.7-17.7,74.8,0,74.8,0s-17.7,57.2,0,74.8c15.5,15.5,50-15.5,65.6,0
			s15.5,50,0,65.6s-50-15.5-65.6,0c-17.7,17.7,0,74.8,0,74.8s-57.2,17.7-74.8,0c-15.5-15.5,15.5-50,0-65.6s-50-15.5-65.6,0
			s15.5,50,0,65.6C880.5,251.5,823.1,233.8,823.1,233.8z"/>
		<path id="path5043-0-1-94-4-9-0-13-2-6-0_1_" class="st4" d="M823.1,233.8c0,0-57.2-17.7-74.8,0c-15.5,15.5,15.5,50,0,65.6
			c-15.5,15.5-50,15.5-65.6,0c-15.5-15.5,15.5-50,0-65.6c-17.7-17.7-74.8,0-74.8,0s-17.7-57.2,0-74.8c15.5-15.5,50,15.5,65.6,0
			c15.5-15.5,15.5-50,0-65.6c-15.5-15.5-50,15.5-65.6,0c-17.7-17.7,0-74.8,0-74.8s57.2,17.7,74.8,0c15.5-15.5-15.5-50,0-65.6
			c15.5-15.5,50-15.5,65.6,0c15.5,15.5-15.5,50,0,65.6c17.7,17.7,74.8,0,74.8,0s17.7,57.2,0,74.8c-15.5,15.5-50-15.5-65.6,0
			c-15.5,15.5-15.5,50,0,65.6c15.5,15.5,50-15.5,65.6,0C840.8,176.6,823.1,233.8,823.1,233.8z"/>
		<path id="path5043-0-6-1-1-0-9-7-3-3-6_1_" class="st2" d="M1253.7,233.8c0,0,17.7-57.2,0-74.8c-15.5-15.5-50,15.5-65.6,0
			s-15.5-50,0-65.6s50,15.5,65.6,0c17.7-17.7,0-74.8,0-74.8s57.2-17.7,74.8,0c15.5,15.5-15.5,50,0,65.6s50,15.5,65.6,0
			s-15.5-50,0-65.6c17.7-17.7,74.8,0,74.8,0s-17.7,57.2,0,74.8c15.5,15.5,50-15.5,65.6,0c15.5,15.5,15.5,50,0,65.6
			c-15.5,15.5-50-15.5-65.6,0c-17.7,17.7,0,74.8,0,74.8s-57.2,17.7-74.8,0c-15.5-15.5,15.5-50,0-65.6s-50-15.5-65.6,0
			s15.5,50,0,65.6C1311,251.5,1253.7,233.8,1253.7,233.8z"/>
		<path id="path5043-0-1-94-4-9-0-13-2-0-7_1_" class="st3" d="M1253.7,233.8c0,0-57.2-17.7-74.8,0c-15.5,15.5,15.5,50,0,65.6
			c-15.5,15.5-50,15.5-65.6,0c-15.5-15.5,15.5-50,0-65.6c-17.7-17.7-74.8,0-74.8,0s-17.7-57.2,0-74.8c15.5-15.5,50,15.5,65.6,0
			s15.5-50,0-65.6s-50,15.5-65.6,0c-17.7-17.7,0-74.8,0-74.8s57.2,17.7,74.8,0c15.5-15.5-15.5-50,0-65.6c15.5-15.5,50-15.5,65.6,0
			s-15.5,50,0,65.6c17.7,17.7,74.8,0,74.8,0s17.7,57.2,0,74.8c-15.5,15.5-50-15.5-65.6,0s-15.5,50,0,65.6s50-15.5,65.6,0
			C1271.3,176.6,1253.7,233.8,1253.7,233.8z"/>
		<path id="path5043-0-33-7-8-3-3-2-6-6_3_" class="st2" d="M177.8,447.8c0,0-57.2-17.7-74.8,0c-15.5,15.5,15.5,50,0,65.6
			s-50,15.5-65.6,0s15.5-50,0-65.6c-17.7-17.7-74.8,0-74.8,0s-17.7-57.2,0-74.8c15.5-15.5,50,15.5,65.6,0c15.5-15.5,15.5-50,0-65.6
			c-15.5-15.5-50,15.5-65.6,0c-17.7-17.7,0-74.8,0-74.8s57.2,17.7,74.8,0c15.5-15.5-15.5-50,0-65.6c15.5-15.5,50-15.5,65.6,0
			s-15.5,50,0,65.6c17.7,17.7,74.8,0,74.8,0s17.7,57.2,0,74.8c-15.5,15.5-50-15.5-65.6,0c-15.5,15.5-15.5,50,0,65.6
			c15.5,15.5,50-15.5,65.6,0C195.5,390.4,177.8,447.8,177.8,447.8z"/>
		<path id="path5043-0-33-7-8-3-3-2-8-1_3_" class="st1" d="M608.5,447.8c0,0-57.2-17.7-74.8,0c-15.5,15.5,15.5,50,0,65.6
			s-50,15.5-65.6,0c-15.5-15.5,15.5-50,0-65.6c-17.7-17.7-74.8,0-74.8,0s-17.7-57.2,0-74.8c15.5-15.5,50,15.5,65.6,0
			c15.5-15.5,15.5-50,0-65.6c-15.5-15.5-50,15.5-65.6,0c-17.7-17.7,0-74.8,0-74.8s57.2,17.7,74.8,0c15.5-15.5-15.5-50,0-65.6
			c15.5-15.5,50-15.5,65.6,0s-15.5,50,0,65.6c17.7,17.7,74.8,0,74.8,0s17.7,57.2,0,74.8c-15.5,15.5-50-15.5-65.6,0
			c-15.5,15.5-15.5,50,0,65.6c15.5,15.5,50-15.5,65.6,0C626,390.4,608.5,447.8,608.5,447.8z"/>
		<path id="path5043-0-6-9-84-1-9-9-4-6-6-5_3_" class="st4" d="M177.8,447.8c0,0,17.7-57.2,0-74.8c-15.5-15.5-50,15.5-65.6,0
			c-15.5-15.5-15.5-50,0-65.6c15.5-15.5,50,15.5,65.6,0c17.7-17.7,0-74.8,0-74.8s57.2-17.7,74.8,0c15.5,15.5-15.5,50,0,65.6
			s50,15.5,65.6,0c15.5-15.5-15.5-50,0-65.6c17.7-17.7,74.8,0,74.8,0s-17.7,57.2,0,74.8c15.5,15.5,50-15.5,65.6,0
			c15.5,15.5,15.5,50,0,65.6c-15.5,15.5-50-15.5-65.6,0c-17.7,17.7,0,74.8,0,74.8s-57.2,17.7-74.8,0c-15.5-15.5,15.5-50,0-65.6
			c-15.5-15.5-50-15.5-65.6,0c-15.5,15.5,15.5,50,0,65.6C235.1,465.5,177.8,447.8,177.8,447.8z"/>
		<path id="path5043-0-33-7-8-3-3-2-6-6_2_" class="st2" d="M1038.4,447.8c0,0-57.2-17.7-74.8,0c-15.5,15.5,15.5,50,0,65.6
			s-50,15.5-65.6,0s15.5-50,0-65.6c-17.7-17.7-74.8,0-74.8,0s-17.7-57.2,0-74.8c15.5-15.5,50,15.5,65.6,0c15.5-15.5,15.5-50,0-65.6
			c-15.5-15.5-50,15.5-65.6,0c-17.7-17.7,0-74.8,0-74.8s57.2,17.7,74.8,0c15.5-15.5-15.5-50,0-65.6c15.5-15.5,50-15.5,65.6,0
			c15.5,15.5-15.5,50,0,65.6c17.7,17.7,74.8,0,74.8,0s17.7,57.2,0,74.8c-15.5,15.5-50-15.5-65.6,0c-15.5,15.5-15.5,50,0,65.6
			c15.5,15.5,50-15.5,65.6,0C1056.1,390.4,1038.4,447.8,1038.4,447.8z"/>
		<path id="path5043-0-6-9-84-1-9-9-4-6-4-4_2_" class="st3" d="M607.9,447.8c0,0,17.7-57.2,0-74.8c-15.5-15.5-50,15.5-65.6,0
			c-15.5-15.5-15.5-50,0-65.6c15.5-15.5,50,15.5,65.6,0c17.7-17.7,0-74.8,0-74.8s57.2-17.7,74.8,0c15.5,15.5-15.5,50,0,65.6
			c15.5,15.5,50,15.5,65.6,0c15.5-15.5-15.5-50,0-65.6c17.7-17.7,74.8,0,74.8,0s-17.7,57.2,0,74.8c15.5,15.5,50-15.5,65.6,0
			c15.5,15.5,15.5,50,0,65.6c-15.5,15.5-50-15.5-65.6,0c-17.7,17.7,0,74.8,0,74.8s-57.2,17.7-74.8,0c-15.5-15.5,15.5-50,0-65.6
			c-15.5-15.5-50-15.5-65.6,0c-15.5,15.5,15.5,50,0,65.6C665,465.5,607.9,447.8,607.9,447.8z"/>
		<path id="path5043-0-33-7-8-3-3-2-8-1_2_" class="st1" d="M1469.1,447.8c0,0-57.2-17.7-74.8,0c-15.5,15.5,15.5,50,0,65.6
			c-15.5,15.5-50,15.5-65.6,0c-15.5-15.5,15.5-50,0-65.6c-17.7-17.7-74.8,0-74.8,0s-17.7-57.2,0-74.8c15.5-15.5,50,15.5,65.6,0
			c15.5-15.5,15.5-50,0-65.6c-15.5-15.5-50,15.5-65.6,0c-17.7-17.7,0-74.8,0-74.8s57.2,17.7,74.8,0c15.5-15.5-15.5-50,0-65.6
			c15.5-15.5,50-15.5,65.6,0c15.5,15.5-15.5,50,0,65.6c17.7,17.7,74.8,0,74.8,0s17.7,57.2,0,74.8c-15.5,15.5-50-15.5-65.6,0
			c-15.5,15.5-15.5,50,0,65.6c15.5,15.5,50-15.5,65.6,0C1486.6,390.4,1469.1,447.8,1469.1,447.8z"/>
		<path id="path5043-0-6-9-84-1-9-9-4-6-6-5_2_" class="st4" d="M1038.4,447.8c0,0,17.7-57.2,0-74.8c-15.5-15.5-50,15.5-65.6,0
			c-15.5-15.5-15.5-50,0-65.6c15.5-15.5,50,15.5,65.6,0c17.7-17.7,0-74.8,0-74.8s57.2-17.7,74.8,0c15.5,15.5-15.5,50,0,65.6
			c15.5,15.5,50,15.5,65.6,0s-15.5-50,0-65.6c17.7-17.7,74.8,0,74.8,0s-17.7,57.2,0,74.8c15.5,15.5,50-15.5,65.6,0
			c15.5,15.5,15.5,50,0,65.6c-15.5,15.5-50-15.5-65.6,0c-17.7,17.7,0,74.8,0,74.8s-57.2,17.7-74.8,0c-15.5-15.5,15.5-50,0-65.6
			s-50-15.5-65.6,0c-15.5,15.5,15.5,50,0,65.6C1095.8,465.5,1038.4,447.8,1038.4,447.8z"/>
		<path id="path5043-0-6-1-1-0-9-7-3-0-6_5_" class="st1" d="M1683.8,233.8c0,0,17.7-57.2,0-74.8c-15.5-15.5-50,15.5-65.6,0
			s-15.5-50,0-65.6s50,15.5,65.6,0c17.7-17.7,0-74.8,0-74.8s57.2-17.7,74.8,0c15.5,15.5-15.5,50,0,65.6c15.5,15.5,50,15.5,65.6,0
			s-15.5-50,0-65.6c17.7-17.7,74.8,0,74.8,0s-17.7,57.2,0,74.8c15.5,15.5,50-15.5,65.6,0c15.5,15.5,15.5,50,0,65.6
			c-15.5,15.5-50-15.5-65.6,0c-17.7,17.7,0,74.8,0,74.8s-57.2,17.7-74.8,0c-15.5-15.5,15.5-50,0-65.6s-50-15.5-65.6,0
			c-15.5,15.5,15.5,50,0,65.6C1741.1,251.5,1683.8,233.8,1683.8,233.8z"/>
		<path id="path5043-0-1-94-4-9-0-13-2-6-0_5_" class="st4" d="M1683.8,233.8c0,0-57.2-17.7-74.8,0c-15.5,15.5,15.5,50,0,65.6
			c-15.5,15.5-50,15.5-65.6,0c-15.5-15.5,15.5-50,0-65.6c-17.7-17.7-74.8,0-74.8,0s-17.7-57.2,0-74.8c15.5-15.5,50,15.5,65.6,0
			s15.5-50,0-65.6s-50,15.5-65.6,0c-17.7-17.7,0-74.8,0-74.8s57.2,17.7,74.8,0c15.5-15.5-15.5-50,0-65.6c15.5-15.5,50-15.5,65.6,0
			c15.5,15.5-15.5,50,0,65.6c17.7,17.7,74.8,0,74.8,0s17.7,57.2,0,74.8c-15.5,15.5-50-15.5-65.6,0s-15.5,50,0,65.6s50-15.5,65.6,0
			C1701.4,176.6,1683.8,233.8,1683.8,233.8z"/>
		<path id="path5043-0-1-94-4-9-0-13-2-0-7_5_" class="st3" d="M2114.3,233.8c0,0-57.2-17.7-74.8,0c-15.5,15.5,15.5,50,0,65.6
			c-15.5,15.5-50,15.5-65.6,0c-15.5-15.5,15.5-50,0-65.6c-17.7-17.7-74.8,0-74.8,0s-17.7-57.2,0-74.8c15.5-15.5,50,15.5,65.6,0
			c15.5-15.5,15.5-50,0-65.6c-15.5-15.5-50,15.5-65.6,0c-17.7-17.7,0-74.8,0-74.8s57.2,17.7,74.8,0c15.5-15.5-15.5-50,0-65.6
			s50-15.5,65.6,0c15.5,15.5-15.5,50,0,65.6c17.7,17.7,74.8,0,74.8,0s17.7,57.2,0,74.8c-15.5,15.5-50-15.5-65.6,0s-15.5,50,0,65.6
			s50-15.5,65.6,0C2132,176.6,2114.3,233.8,2114.3,233.8z"/>
		<path id="path5043-0-33-7-8-3-3-2-6-6_4_" class="st2" d="M1899,447.8c0,0-57.2-17.7-74.8,0c-15.5,15.5,15.5,50,0,65.6
			s-50,15.5-65.6,0c-15.5-15.5,15.5-50,0-65.6c-17.7-17.7-74.8,0-74.8,0s-17.7-57.2,0-74.8c15.5-15.5,50,15.5,65.6,0
			c15.5-15.5,15.5-50,0-65.6c-15.5-15.5-50,15.5-65.6,0c-17.7-17.7,0-74.8,0-74.8s57.2,17.7,74.8,0c15.5-15.5-15.5-50,0-65.6
			c15.5-15.5,50-15.5,65.6,0s-15.5,50,0,65.6c17.7,17.7,74.8,0,74.8,0s17.7,57.2,0,74.8c-15.5,15.5-50-15.5-65.6,0
			c-15.5,15.5-15.5,50,0,65.6c15.5,15.5,50-15.5,65.6,0C1916.7,390.4,1899,447.8,1899,447.8z"/>
		<path id="path5043-0-6-9-84-1-9-9-4-6-4-4_4_" class="st3" d="M1468.5,447.8c0,0,17.7-57.2,0-74.8c-15.5-15.5-50,15.5-65.6,0
			c-15.5-15.5-15.5-50,0-65.6c15.5-15.5,50,15.5,65.6,0c17.7-17.7,0-74.8,0-74.8s57.2-17.7,74.8,0c15.5,15.5-15.5,50,0,65.6
			c15.5,15.5,50,15.5,65.6,0c15.5-15.5-15.5-50,0-65.6c17.7-17.7,74.8,0,74.8,0s-17.7,57.2,0,74.8c15.5,15.5,50-15.5,65.6,0
			c15.5,15.5,15.5,50,0,65.6c-15.5,15.5-50-15.5-65.6,0c-17.7,17.7,0,74.8,0,74.8s-57.2,17.7-74.8,0c-15.5-15.5,15.5-50,0-65.6
			c-15.5-15.5-50-15.5-65.6,0c-15.5,15.5,15.5,50,0,65.6C1525.6,465.5,1468.5,447.8,1468.5,447.8z"/>
		<path id="path5043-0-6-9-84-1-9-9-4-6-6-5_4_" class="st4" d="M1899,447.8c0,0,17.7-57.2,0-74.8c-15.5-15.5-50,15.5-65.6,0
			c-15.5-15.5-15.5-50,0-65.6c15.5-15.5,50,15.5,65.6,0c17.7-17.7,0-74.8,0-74.8s57.2-17.7,74.8,0c15.5,15.5-15.5,50,0,65.6
			s50,15.5,65.6,0c15.5-15.5-15.5-50,0-65.6c17.7-17.7,74.8,0,74.8,0s-17.7,57.2,0,74.8c15.5,15.5,50-15.5,65.6,0
			c15.5,15.5,15.5,50,0,65.6c-15.5,15.5-50-15.5-65.6,0c-17.7,17.7,0,74.8,0,74.8s-57.2,17.7-74.8,0c-15.5-15.5,15.5-50,0-65.6
			c-15.5-15.5-50-15.5-65.6,0s15.5,50,0,65.6C1956.4,465.5,1899,447.8,1899,447.8z"/>
	</g>
</g>
</svg>
